HIERARCHY
ROOT Hips
{
	OFFSET 0.00000 0.00000 0.00000
	CHANNELS 6 Xposition Yposition Zposition Zrotation Yrotation Xrotation 
	JOINT LHipJoint
	{
		OFFSET 0 0 0
		CHANNELS 3 Zrotation Yrotation Xrotation
		JOINT LeftHip
		{
			OFFSET 1.57338 -1.94743 0.52196
			CHANNELS 3 Zrotation Yrotation Xrotation
			JOINT LeftKnee
			{
				OFFSET 2.60333 -7.15259 0.00000
				CHANNELS 3 Zrotation Yrotation Xrotation
				JOINT LeftAnkle
				{
					OFFSET 2.77855 -7.63400 0.00000
					CHANNELS 3 Zrotation Yrotation Xrotation
					JOINT LeftToe
					{
						OFFSET 0.19847 -0.54529 2.28466
						CHANNELS 3 Zrotation Yrotation Xrotation
						End Site
						{
							OFFSET 0.00000 -0.00000 1.17993
						}
					}
				}
			}
		}
	}
	JOINT RHipJoint
	{
		OFFSET 0 0 0
		CHANNELS 3 Zrotation Yrotation Xrotation
		JOINT RightHip
		{
			OFFSET -1.61527 -1.94743 0.52196
			CHANNELS 3 Zrotation Yrotation Xrotation
			JOINT RightKnee
			{
				OFFSET -2.53829 -6.97390 0.00000
				CHANNELS 3 Zrotation Yrotation Xrotation
				JOINT RightAnkle
				{
					OFFSET -2.80762 -7.71387 0.00000
					CHANNELS 3 Zrotation Yrotation Xrotation
					JOINT RightToe
					{
						OFFSET -0.30536 -0.83898 2.28801
						CHANNELS 3 Zrotation Yrotation Xrotation
						End Site
						{
							OFFSET -0.00000 -0.00000 1.21323
						}
					}
				}
			}
		}
	}
	JOINT lowerback
	{
		OFFSET 0 0 0
		CHANNELS 3 Zrotation Yrotation Xrotation
		JOINT Chest
		{
			OFFSET -0.04381 1.99497 -0.19778
			CHANNELS 3 Zrotation Yrotation Xrotation
			JOINT Chest2
			{
				OFFSET -0.01959 2.01295 -0.04372
				CHANNELS 3 Zrotation Yrotation Xrotation
				JOINT lowerneck
				{
					OFFSET 0 0 0
					CHANNELS 3 Zrotation Yrotation Xrotation
					JOINT Neck
					{
						OFFSET -0.05459 1.76913 0.09708
						CHANNELS 3 Zrotation Yrotation Xrotation
						JOINT Head
						{
							OFFSET 0.09461 1.77368 -0.11172
							CHANNELS 3 Zrotation Yrotation Xrotation
							End Site
							{
								OFFSET 0.03812 1.78157 -0.04834
							}
						}
					}
				}
				JOINT LeftCollar
				{
					OFFSET 0 0 0
					CHANNELS 3 Zrotation Yrotation Xrotation
					JOINT LeftShoulder
					{
						OFFSET 3.50922 1.24034 -0.28866
CHANNELS 3 Zrotation Xrotation Yrotation
						JOINT LeftElbow
						{
OFFSET 0 -5.401880 0.000000
CHANNELS 3 Zrotation Xrotation Yrotation
							JOINT LeftWrist
							{
OFFSET 0 -3.685590 0.000000
CHANNELS 3 Zrotation Xrotation Yrotation
								JOINT lhand
								{
									OFFSET 0 0 0
CHANNELS 3 Zrotation Xrotation Yrotation
									JOINT LFingers
									{
OFFSET 0 -0.617530 0.000000
CHANNELS 3 Zrotation Xrotation Yrotation
										End Site
										{
OFFSET 0 -0.497870 0.000000
										}
									}
								}
								JOINT LThumb
								{
OFFSET 0 0.000000 0.000000
CHANNELS 3 Zrotation Xrotation Yrotation
									End Site
									{
OFFSET 0 -0.505470 0.505470
									}
								}
							}
						}
					}
				}
				JOINT RightCollar
				{
					OFFSET 0 0 0
					CHANNELS 3 Zrotation Yrotation Xrotation
					JOINT RightShoulder
					{
						OFFSET -2.95373 1.39649 -0.27346
CHANNELS 3 Zrotation Xrotation Yrotation
						JOINT RightElbow
						{
OFFSET 0 -6.106700 -0.000000
CHANNELS 3 Zrotation Xrotation Yrotation
							JOINT RightWrist
							{
OFFSET 0 -3.630520 0.000000
CHANNELS 3 Zrotation Xrotation Yrotation
								JOINT rhand
								{
									OFFSET 0 0 0
CHANNELS 3 Zrotation Xrotation Yrotation
									JOINT RFingers
									{
OFFSET 0 -0.583850 0.000000
CHANNELS 3 Zrotation Xrotation Yrotation
										End Site
										{
OFFSET 0 -0.470710 0.000000
										}
									}
								}
								JOINT RThumb
								{
OFFSET 0 0.000000 0.000000
CHANNELS 3 Zrotation Xrotation Yrotation
									End Site
									{
OFFSET 0 -0.477900 0.477900
									}
								}
							}
						}
					}
				}
			}
		}
	}
}
MOTION
Frames: 10
Frame Time: 0.008333333333333333
-0.029781 18.831426 4.131151 0.538777 -5.572920 -3.599766 0.000000 0.000000 0.000000 -19.539834 -6.706680 10.195615 0.273161 3.361833 9.287797 -0.264729 16.041450 -19.927016 0.048029 -1.414425 -3.889797 0.000000 0.000000 0.000000 0.000000 0.000000 0.000000 0.000000 0.000000 0.000000 0.000000 0.000000 0.000000 0.000000 0.000000 0.000000 -1.638319 1.752257 5.842078 -1.330642 2.180247 0.126150 -0.637115 1.099251 -3.153674 -5.715378 -5.064937 -5.768952 7.652437 -7.370935 14.045887 2.831618 -3.402014 5.674051 0.000000 0.000000 0.000000 7.221090 3.276568 -7.875024 10.719057 -17.856358 1.688760 26.262919 18.683073 -18.909312 0.000000 0.000000 0.000000 -7.125000 0.000000 0.000000 -1.967817 50.875846 0.284829 0.000000 0.000000 0.000000 -30.235641 -36.032626 39.528486 -150.568608 -40.400992 -108.960763 -35.311598 -8.446383 0.630082 0.000000 0.000000 0.000000 7.125000 0.000000 0.000000 -6.935693 30.710291 -2.436944
-0.029326 18.830220 4.129063 0.577623 -5.486525 -3.603271 0.000000 0.000000 0.000000 -19.579097 -6.745256 10.205876 0.272334 3.356806 9.273639 -0.262437 16.012228 -19.906060 0.049154 -1.430396 -3.933888 0.000000 0.000000 0.000000 0.000000 0.000000 0.000000 0.000000 0.000000 0.000000 0.000000 0.000000 0.000000 0.000000 0.000000 0.000000 -1.683793 1.696418 5.780184 -1.323801 2.104567 0.121356 -0.596158 1.062298 -3.125593 -5.810086 -5.014136 -5.728625 7.688976 -7.275609 13.710241 2.867821 -3.363533 5.560776 0.000000 0.000000 0.000000 7.168818 3.394382 -7.700242 10.723303 -17.862931 1.690091 26.490132 18.942710 -19.404828 0.000000 0.000000 0.000000 -7.125000 0.000000 0.000000 -1.847704 51.453810 0.293712 0.000000 0.000000 0.000000 -30.814230 -36.886527 38.848211 -150.684183 -40.299720 -109.035555 -35.359223 -7.996968 0.704176 0.000000 0.000000 0.000000 7.125000 0.000000 0.000000 -6.942186 30.771835 -2.456660
-0.028462 18.831005 4.126900 0.595055 -5.388087 -3.583024 0.000000 0.000000 0.000000 -19.588793 -6.803320 10.203423 0.269114 3.336886 9.218154 -0.270228 16.014542 -19.816874 0.045147 -1.371471 -3.771485 0.000000 0.000000 0.000000 0.000000 0.000000 0.000000 0.000000 0.000000 0.000000 0.000000 0.000000 0.000000 0.000000 0.000000 0.000000 -1.655678 1.746149 5.761961 -1.421810 2.173092 0.273475 -0.714438 1.094577 -2.953688 -5.587462 -5.109859 -6.079694 7.728421 -7.383360 13.122343 2.828437 -3.401923 5.439972 0.000000 0.000000 0.000000 7.373003 3.004734 -7.652353 10.711523 -17.844665 1.686483 26.796425 19.458159 -19.564573 0.000000 0.000000 0.000000 -7.125000 0.000000 0.000000 -1.572356 51.682824 0.258816 0.000000 0.000000 0.000000 -31.507398 -37.891091 37.627256 -150.765334 -40.228333 -109.088015 -36.764848 -11.208138 -4.172830 0.000000 0.000000 0.000000 7.125000 0.000000 0.000000 -7.568489 24.774529 -3.732418
-0.028380 18.831347 4.127273 0.642511 -5.262167 -3.594805 0.000000 0.000000 0.000000 -19.641090 -6.872438 10.243676 0.267180 3.325187 9.185362 -0.266461 15.974446 -19.795999 0.048467 -1.420248 -3.905985 0.000000 0.000000 0.000000 0.000000 0.000000 0.000000 0.000000 0.000000 0.000000 0.000000 0.000000 0.000000 0.000000 0.000000 0.000000 -1.723803 1.709655 5.795483 -1.412547 2.118584 0.238097 -0.664212 1.068615 -3.011791 -5.705615 -5.139819 -5.832107 7.738003 -7.383748 12.537823 2.858912 -3.421078 5.221831 0.000000 0.000000 0.000000 7.324400 3.038525 -7.414493 10.677886 -17.792842 1.676184 26.513525 19.200861 -19.494626 0.000000 0.000000 0.000000 -7.125000 0.000000 0.000000 -1.844056 51.555395 0.297767 0.000000 0.000000 0.000000 -32.180407 -38.557323 36.881675 -150.853562 -40.150410 -109.144959 -36.546255 -9.895868 -2.986271 0.000000 0.000000 0.000000 7.125000 0.000000 0.000000 -7.540653 26.251276 -3.455856
-0.027746 18.830694 4.127791 0.656258 -5.206196 -3.539068 0.000000 0.000000 0.000000 -19.654181 -6.904707 10.182621 0.268528 3.333409 9.208359 -0.262442 15.936960 -19.782651 0.044943 -1.368733 -3.764014 0.000000 0.000000 0.000000 0.000000 0.000000 0.000000 0.000000 0.000000 0.000000 0.000000 0.000000 0.000000 0.000000 0.000000 0.000000 -1.777488 1.610931 5.766929 -1.328564 1.983023 0.037945 -0.539757 1.003719 -3.206988 -6.118798 -5.058255 -5.219204 7.884391 -7.247201 12.102082 2.998991 -3.385153 4.993585 0.000000 0.000000 0.000000 7.122982 3.496608 -7.065578 10.706454 -17.836854 1.684900 25.916776 18.769475 -19.772311 0.000000 0.000000 0.000000 -7.125000 0.000000 0.000000 -2.513801 51.747837 0.417989 0.000000 0.000000 0.000000 -32.734509 -39.075051 36.633251 -150.896928 -40.112116 -109.172898 -36.935274 -9.991746 -3.652480 0.000000 0.000000 0.000000 7.125000 0.000000 0.000000 -7.756538 25.407407 -3.710650
-0.027456 18.831652 4.127870 0.635100 -5.131890 -3.542806 0.000000 0.000000 0.000000 -19.625007 -6.948018 10.159301 0.270764 3.347063 9.246568 -0.271265 15.950732 -19.699833 0.051002 -1.457596 -4.008991 0.000000 0.000000 0.000000 0.000000 0.000000 0.000000 0.000000 0.000000 0.000000 0.000000 0.000000 0.000000 0.000000 0.000000 0.000000 -1.705345 1.614134 5.758578 -1.378052 1.991558 0.078553 -0.630692 1.006237 -3.156150 -6.068789 -5.119364 -5.623687 7.886068 -7.309508 11.985363 2.977158 -3.405010 5.029556 0.000000 0.000000 0.000000 7.217447 3.395225 -6.875659 10.687678 -17.807952 1.679163 25.782413 18.986837 -19.954102 0.000000 0.000000 0.000000 -7.125000 0.000000 0.000000 -2.694239 51.919496 0.459396 0.000000 0.000000 0.000000 -33.388521 -39.725619 35.770926 -150.931036 -40.081900 -109.194867 -36.022068 -7.357473 -0.841851 0.000000 0.000000 0.000000 7.125000 0.000000 0.000000 -7.352214 28.898466 -2.912113
-0.028513 18.831200 4.127366 0.721020 -5.089259 -3.568665 0.000000 0.000000 0.000000 -19.705183 -6.928925 10.192865 0.266684 3.322047 9.176670 -0.289311 16.001172 -19.565803 0.055334 -1.517834 -4.174873 0.000000 0.000000 0.000000 0.000000 0.000000 0.000000 0.000000 0.000000 0.000000 0.000000 0.000000 0.000000 0.000000 0.000000 0.000000 -1.774599 1.664548 5.789647 -1.461865 2.051730 0.141647 -0.682963 1.036290 -3.108037 -5.862839 -5.175858 -6.054449 7.768090 -7.353829 11.694594 2.894100 -3.417761 5.005263 0.000000 0.000000 0.000000 7.356461 3.195221 -6.861285 10.646275 -17.744119 1.666557 25.766454 19.137505 -20.203629 0.000000 0.000000 0.000000 -7.125000 0.000000 0.000000 -2.772188 52.185228 0.490658 0.000000 0.000000 0.000000 -34.105880 -40.381907 34.773319 -150.909842 -40.100671 -109.181269 -35.128166 -4.389105 2.508218 0.000000 0.000000 0.000000 7.125000 0.000000 0.000000 -6.931921 32.989712 -2.052787
-0.028457 18.831371 4.129500 0.751588 -5.017493 -3.547223 0.000000 0.000000 0.000000 -19.731019 -6.946674 10.218285 0.261501 3.289804 9.086740 -0.281618 15.945576 -19.566546 0.050988 -1.456516 -4.005955 0.000000 0.000000 0.000000 0.000000 0.000000 0.000000 0.000000 0.000000 0.000000 0.000000 0.000000 0.000000 0.000000 0.000000 0.000000 -1.775914 1.679472 5.756358 -1.487851 2.071342 0.125300 -0.709958 1.045900 -3.105387 -5.914426 -5.179105 -5.957936 7.815288 -7.328254 11.161869 2.924028 -3.413861 4.827319 0.000000 0.000000 0.000000 7.413773 3.081788 -6.703244 10.509654 -17.532740 1.625193 25.739916 19.198981 -20.054872 0.000000 0.000000 0.000000 -7.125000 0.000000 0.000000 -2.762281 52.020199 0.477852 0.000000 0.000000 0.000000 -34.896475 -40.931791 33.800208 -150.878089 -40.128756 -109.160768 -35.432315 -4.076132 1.601448 0.000000 0.000000 0.000000 7.125000 0.000000 0.000000 -7.108722 31.892403 -2.296567
-0.028664 18.832627 4.131272 0.711236 -4.960141 -3.565500 0.000000 0.000000 0.000000 -19.684272 -6.942931 10.276856 0.259325 3.276273 9.048794 -0.269474 15.863980 -19.577605 0.044037 -1.354882 -3.725910 0.000000 0.000000 0.000000 0.000000 0.000000 0.000000 0.000000 0.000000 0.000000 0.000000 0.000000 0.000000 0.000000 0.000000 0.000000 -1.762527 1.687907 5.697284 -1.465369 2.086283 0.134969 -0.693281 1.053167 -3.062628 -5.923231 -5.154239 -6.056565 7.819265 -7.269802 10.860408 2.929998 -3.386813 4.748197 0.000000 0.000000 0.000000 7.429746 3.000292 -6.578802 10.390198 -17.347604 1.589328 25.919313 19.182664 -19.692831 0.000000 0.000000 0.000000 -7.125000 0.000000 0.000000 -2.492174 51.662632 0.409174 0.000000 0.000000 0.000000 -35.734450 -41.437533 32.974153 -150.775383 -40.219460 -109.094542 -36.105248 -4.285838 0.492319 0.000000 0.000000 0.000000 7.125000 0.000000 0.000000 -7.550348 30.540735 -2.687356
-0.026354 18.830535 4.134162 0.807389 -4.912137 -3.489147 0.000000 0.000000 0.000000 -19.798709 -6.971713 10.178388 0.261231 3.288078 9.081725 -0.270962 15.862923 -19.557961 0.048146 -1.415900 -3.893864 0.000000 0.000000 0.000000 0.000000 0.000000 0.000000 0.000000 0.000000 0.000000 0.000000 0.000000 0.000000 0.000000 0.000000 0.000000 -1.820145 1.714958 5.530349 -1.536991 2.121508 0.146965 -0.731805 1.070796 -2.956193 -6.063453 -5.192820 -6.154328 8.048671 -7.307063 10.489909 3.020531 -3.400347 4.667777 0.000000 0.000000 0.000000 7.504113 2.944425 -6.474513 10.385627 -17.340489 1.587977 25.787638 19.259409 -19.513441 0.000000 0.000000 0.000000 -7.125000 0.000000 0.000000 -2.582988 51.445236 0.410282 0.000000 0.000000 0.000000 -36.557310 -41.999551 31.988220 -150.658294 -40.322440 -109.018827 -36.867676 -4.496853 -0.341715 0.000000 0.000000 0.000000 7.125000 0.000000 0.000000 -8.067291 29.506692 -3.075259
